<svg width="128" height="128" viewBox="0 0 128 128" fill="none" xmlns="http://www.w3.org/2000/svg">
<rect width="128" height="128" fill="#8247E5"/>
<path d="M82.0026 52.3383C80.7232 51.6261 79.0783 51.6261 77.6162 52.3383L67.3812 58.2137L60.436 61.9525L50.3838 67.8279C49.1044 68.5401 47.4595 68.5401 45.9974 67.8279L38.1384 63.1988C36.859 62.4866 35.9452 61.0623 35.9452 59.4599V50.5579C35.9452 49.1335 36.6762 47.7092 38.1384 46.819L45.9974 42.368C47.2768 41.6558 48.9217 41.6558 50.3838 42.368L58.2428 46.997C59.5222 47.7092 60.436 49.1335 60.436 50.7359V56.6113L67.3812 52.6944V46.6409C67.3812 45.2166 66.6501 43.7923 65.188 42.9021L50.5666 34.5341C49.2872 33.822 47.6423 33.822 46.1802 34.5341L31.1932 43.0801C29.7311 43.7923 29 45.2166 29 46.6409V63.3769C29 64.8012 29.7311 66.2255 31.1932 67.1157L45.9974 75.4837C47.2768 76.1958 48.9217 76.1958 50.3838 75.4837L60.436 69.7864L67.3812 65.8694L77.4334 60.1721C78.7128 59.4599 80.3577 59.4599 81.8198 60.1721L89.6789 64.6231C90.9582 65.3353 91.8721 66.7596 91.8721 68.362V77.2641C91.8721 78.6884 91.141 80.1128 89.6789 81.003L82.0026 85.454C80.7232 86.1662 79.0783 86.1662 77.6162 85.454L69.7572 81.003C68.4778 80.2908 67.564 78.8665 67.564 77.2641V71.5668L60.6188 75.4837V81.3591C60.6188 82.7834 61.3499 84.2077 62.812 85.0979L77.6162 93.4659C78.8956 94.178 80.5405 94.178 82.0026 93.4659L96.8068 85.0979C98.0862 84.3858 99 82.9614 99 81.3591V64.4451C99 63.0208 98.2689 61.5964 96.8068 60.7062L82.0026 52.3383Z" fill="white"/>
</svg>
